<svg xmlns="http://www.w3.org/2000/svg" x="0px" y="0px" width="100" height="100" viewBox="0,0,256,256">
  <g fill="#7f54b3" fill-rule="nonzero" stroke="none" stroke-width="1" stroke-linecap="butt" stroke-linejoin="miter" stroke-miterlimit="10" stroke-dasharray="" stroke-dashoffset="0" font-family="none" font-weight="none" font-size="none" text-anchor="none" style="mix-blend-mode: normal">
    <g transform="scale(10.66667,10.66667)">
      <path d="M3,4c-1.657,0 -3,1.343 -3,3v7c0,1.657 1.343,3 3,3h7.28516l6.00977,2.95508c0.389,0.174 0.80159,-0.1867 0.68359,-0.5957l-0.97852,-2.35937h5c1.657,0 3,-1.34495 3,-3.00195v-6.99805c0,-1.657 -1.343,-3 -3,-3zM10.24805,6c0.09717,-0.00042 0.19456,0.01884 0.28906,0.05859c0.383,0.159 0.5643,0.59652 0.4043,0.97852c-0.645,1.549 -0.9707,3.97589 -0.9707,7.21289c0,0.319 -0.20386,0.60398 -0.50586,0.70898c-0.079,0.027 -0.16214,0.04102 -0.24414,0.04102c-0.226,0 -0.44484,-0.10311 -0.58984,-0.28711c-0.937,-1.192 -1.66962,-3.124 -2.14062,-4.625l-1.79492,4.44336c-0.121,0.298 -0.42823,0.4848 -0.74023,0.4668c-0.321,-0.02 -0.59469,-0.23978 -0.67969,-0.55078c-0.046,-0.168 -1.12744,-4.15902 -1.27344,-7.66602c-0.018,-0.414 0.3028,-0.7633 0.7168,-0.7793c0.41,-0.041 0.7623,0.3028 0.7793,0.7168c0.072,1.728 0.39736,3.62464 0.69336,5.05664l1.73828,-4.30664c0.123,-0.304 0.41686,-0.49584 0.75586,-0.46484c0.327,0.026 0.59987,0.26203 0.67188,0.58203c0.007,0.029 0.45908,2.00833 1.20508,3.86133c0.147,-2.095 0.47809,-3.73838 0.99609,-4.98438c0.11925,-0.288 0.39794,-0.46162 0.68945,-0.46289zM13.79492,7c0.12842,-0.00094 0.25751,0.01136 0.38477,0.03711c1.342,0.28 2.09861,2.01713 1.72461,3.95312c-0.222,1.149 -0.80741,2.13758 -1.56641,2.64258c-0.365,0.243 -0.75553,0.36719 -1.14453,0.36719c-0.125,0 -0.24905,-0.01211 -0.37305,-0.03711c-1.341,-0.28 -2.09861,-2.01712 -1.72461,-3.95312c0.222,-1.149 0.80741,-2.13758 1.56641,-2.64258c0.3615,-0.24075 0.74755,-0.36437 1.13281,-0.36719zM19.79492,7c0.12842,-0.00094 0.25752,0.01136 0.38477,0.03711c1.342,0.28 2.09861,2.01713 1.72461,3.95312c-0.222,1.149 -0.80741,2.13758 -1.56641,2.64258c-0.365,0.243 -0.75553,0.36719 -1.14453,0.36719c-0.125,0 -0.24905,-0.01211 -0.37305,-0.03711c-1.341,-0.28 -2.09861,-2.01712 -1.72461,-3.95312c0.222,-1.149 0.80741,-2.13758 1.56641,-2.64258c0.3615,-0.24075 0.74755,-0.36437 1.13281,-0.36719zM13.80859,8.5c-0.094,0 -0.19845,0.03823 -0.31445,0.11523c-0.419,0.278 -0.78178,0.93869 -0.92578,1.67969c-0.236,1.222 0.17455,2.11727 0.56055,2.19727c0.106,0.024 0.23391,-0.01242 0.37891,-0.10742c0.419,-0.278 0.78178,-0.93869 0.92578,-1.67969c0.235,-1.222 -0.17455,-2.11727 -0.56055,-2.19727c-0.02,-0.005 -0.04245,-0.00781 -0.06445,-0.00781zM19.80859,8.5c-0.094,0 -0.19845,0.03823 -0.31445,0.11523c-0.419,0.278 -0.78178,0.93869 -0.92578,1.67969c-0.236,1.222 0.17455,2.11727 0.56055,2.19727c0.106,0.024 0.23491,-0.01242 0.37891,-0.10742c0.419,-0.278 0.78178,-0.93869 0.92578,-1.67969c0.235,-1.222 -0.17455,-2.11727 -0.56055,-2.19727c-0.02,-0.005 -0.04245,-0.00781 -0.06445,-0.00781z"/>
    </g>
  </g>
</svg>
